<?xml version="1.0" encoding="UTF-8"?>
<svg viewBox="0 0 256 256" xmlns="http://www.w3.org/2000/svg" xmlns:xlink="http://www.w3.org/1999/xlink">
 <defs>
  <clipPath id="h">
   <path d="m48 102c-19.882 0-36 16.118-36 36s16.118 36 36 36 36-16.118 36-36-16.118-36-36-36zm0 24c6.6274 0 12 5.3726 12 12s-5.3726 12-12 12-12-5.3726-12-12 5.3726-12 12-12z"/>
  </clipPath>
  <clipPath id="i">
   <path d="m48 32c-19.882 0-36 16.118-36 36s16.118 36 36 36 36-16.118 36-36-16.118-36-36-36zm0 24c6.6274 0 12 5.3726 12 12s-5.3726 12-12 12-12-5.3726-12-12 5.3726-12 12-12z"/>
  </clipPath>
  <clipPath id="j">
   <path transform="matrix(1.3435 0 0 1.3435 -16.125 74.167)" d="m76.014 47.513a28.284 28.284 0 1 1 -56.568 0 28.284 28.284 0 1 1 56.568 0z"/>
  </clipPath>
  <filter id="g">
   <feGaussianBlur stdDeviation="1.44"/>
  </filter>
  <filter id="e" x="-.18" y="-.18" width="1.36" height="1.36">
   <feGaussianBlur stdDeviation="5.216"/>
  </filter>
  <filter id="f" x="-.1904" y="-.1707" width="1.3807" height="1.3414">
   <feGaussianBlur stdDeviation="4.948"/>
  </filter>
  <linearGradient id="a" x1="86.631" x2="219.1" gradientUnits="userSpaceOnUse">
   <stop stop-color="#c100c2" stop-opacity=".974" offset="0"/>
   <stop stop-color="#9f00dc" offset=".5"/>
   <stop stop-color="#500241" offset="1"/>
  </linearGradient>
  <linearGradient id="c" x1="26.18" x2="93.608" gradientUnits="userSpaceOnUse">
   <stop stop-color="#fff" stop-opacity=".203" offset="0"/>
   <stop stop-color="#fff" stop-opacity=".68" offset="1"/>
  </linearGradient>
  <linearGradient id="d" x1="25.22" x2="94.568" gradientUnits="userSpaceOnUse">
   <stop stop-color="#4d4d4d" offset="0"/>
   <stop stop-color="#fff" offset="1"/>
  </linearGradient>
  <radialGradient id="b" cx="46.467" cy="47.765" r="35.86" gradientTransform="matrix(1.3188 -.21079 .20284 1.2691 -24.504 -3.0596)" gradientUnits="userSpaceOnUse">
   <stop stop-color="#5a5a5a" offset="0"/>
   <stop stop-color="#fff" offset=".465"/>
   <stop stop-color="#505050" offset="1"/>
  </radialGradient>
 </defs>
 <g transform="translate(29.212 -764.28)" fill="url(#a)">
  <g transform="matrix(2 0 0 2 154.29 820.92)" fill="url(#a)" font-family="Sans" font-size="10" letter-spacing="0" word-spacing="0">
   <g transform="matrix(.5 0 0 .5 -93.619 -28.846)">
    <g transform="translate(0 -796.36)" fill="url(#a)">
     <path transform="matrix(3.2157 0 0 3.2157 -18.572 771.45)" d="m82.327 47.765c0 19.805-16.055 35.86-35.86 35.86s-35.86-16.055-35.86-35.86 16.055-35.86 35.86-35.86 35.86 16.055 35.86 35.86z" fill="url(#b)" opacity=".4"/>
     <path transform="matrix(3.0346 0 0 3.0346 -14.811 506.27)" d="m48 102c-19.882 0-36 16.118-36 36s16.118 36 36 36 36-16.118 36-36-16.118-36-36-36zm0 24c6.6274 0 12 5.3726 12 12s-5.3726 12-12 12-12-5.3726-12-12 5.3726-12 12-12z" clip-path="url(#j)" fill="#000" filter="url(#g)" opacity=".8"/>
     <path d="m130.85 815.8c-60.336 0-109.25 48.912-109.25 109.25s48.912 109.25 109.25 109.25 109.25-48.912 109.25-109.25-48.912-109.25-109.25-109.25zm0 72.831c20.112 0 36.416 16.304 36.416 36.416s-16.304 36.416-36.416 36.416-36.416-16.304-36.416-36.416 16.304-36.416 36.416-36.416z" fill="#ccbb98"/>
     <path d="m130.85 888.63c-20.112 0-36.416 16.304-36.416 36.416s16.304 36.416 36.416 36.416 36.416-16.304 36.416-36.416-16.304-36.416-36.416-36.416zm0 21.242c8.3799 0 15.173 6.7933 15.173 15.173s-6.7933 15.173-15.173 15.173-15.173-6.7933-15.173-15.173 6.7933-15.173 15.173-15.173z" fill="#fff" opacity=".3"/>
     <path transform="matrix(0 .51064 -.61343 0 168.84 894.46)" d="m92.58 61.922c0 15.027-14.634 27.208-32.686 27.208s-32.686-12.182-32.686-27.208 14.634-27.208 32.686-27.208 32.686 12.182 32.686 27.208z" fill="none" opacity=".6" stroke="url(#d)" stroke-linecap="round" stroke-width="5.4221"/>
     <path transform="matrix(0 .882 -1.0596 0 196.46 872.22)" d="m92.58 61.922c0 15.027-14.634 27.208-32.686 27.208s-32.686-12.182-32.686-27.208 14.634-27.208 32.686-27.208 32.686 12.182 32.686 27.208z" fill="#f9e5e5" fill-rule="evenodd" opacity=".5" stroke="url(#c)" stroke-linecap="round" stroke-width="3.1391"/>
     <path transform="matrix(3.0346 0 0 3.0346 -14.811 712.69)" d="m57.312 33.219-9.3125 34.781 31.188-18c-4.7739-8.2686-12.652-14.31-21.875-16.781zm-9.3125 34.781-31.188 18c4.7739 8.2686 12.652 14.31 21.875 16.781l9.3125-34.781z" clip-path="url(#i)" fill="#fff" filter="url(#f)" opacity=".8"/>
     <g transform="matrix(3.0346 0 0 3.0346 -14.811 506.27)" clip-path="url(#h)" filter="url(#e)" opacity=".6">
      <path transform="matrix(1.5055 .86922 -.95673 1.6571 27.56 21.5)" d="m60.948 57.784c-0.763 1.0454-1.6392 2.0189-2.6155 2.9059l-14.643-13.304z" fill="#7137c8"/>
      <path transform="matrix(1.6792 .44994 -.49524 1.8483 -1.8956 30.76)" d="m60.779 58.011c-0.9656 1.2821-2.1023 2.4506-3.384 3.4788l-13.706-14.103z" fill="#0cf"/>
      <path transform="matrix(1.7384 0 -6.0266e-8 1.9135 -27.951 47.328)" d="m62.724 54.796c-0.6034 1.2796-1.3613 2.4944-2.2597 3.6221l-16.775-11.031z" fill="#fc0"/>
      <path transform="matrix(1.6792 -.44994 .49524 1.8483 -48.831 70.075)" d="m61.623 56.794c-0.5047 0.7942-1.0726 1.5538-1.6993 2.2728l-16.234-11.68z" fill="#f00"/>
      <path transform="matrix(1.6792 .44994 -.49524 1.8483 -1.8956 30.76)" d="m63.123 53.883c-0.596 1.4716-1.3922 2.8698-2.37 4.1619l-17.064-10.659z" fill="#0f0"/>
      <path transform="matrix(-1.5055 -.86922 .95673 -1.6571 68.44 254.5)" d="m60.948 57.784c-0.763 1.0454-1.6392 2.0189-2.6155 2.9059l-14.643-13.304z" fill="#7137c8"/>
      <path transform="matrix(-1.6792 -.44994 .49524 -1.8483 97.896 245.24)" d="m60.779 58.011c-0.9656 1.2821-2.1023 2.4506-3.384 3.4788l-13.706-14.103z" fill="#0cf"/>
      <path transform="matrix(-1.7384 0 6.0266e-8 -1.9135 123.95 228.67)" d="m62.724 54.796c-0.6034 1.2796-1.3613 2.4944-2.2597 3.6221l-16.775-11.031z" fill="#fc0"/>
      <path transform="matrix(-1.6792 .44994 -.49524 -1.8483 144.83 205.92)" d="m61.623 56.794c-0.5047 0.7942-1.0726 1.5538-1.6993 2.2728l-16.234-11.68z" fill="#f00"/>
      <path transform="matrix(-1.6792 -.44994 .49524 -1.8483 97.896 245.24)" d="m63.123 53.883c-0.596 1.4716-1.3922 2.8698-2.37 4.1619l-17.064-10.659z" fill="#0f0"/>
     </g>
     <path d="m130.85 881.04c-24.302 0-44.002 19.7-44.002 44.002s19.7 44.002 44.002 44.002 44.002-19.7 44.002-44.002-19.7-44.002-44.002-44.002zm0 7.5866c20.112 0 36.416 16.304 36.416 36.416s-16.304 36.416-36.416 36.416-36.416-16.304-36.416-36.416 16.304-36.416 36.416-36.416z" fill="#000" opacity=".2"/>
     <path d="m130.85 815.8c-60.336 0-109.25 48.912-109.25 109.25 0 1.0229 0.0668 2.0185 0.0947 3.0346 1.6199-58.921 49.84-106.21 109.15-106.21s107.53 47.291 109.15 106.21c0.0273-1.0161 0.095-2.0118 0.095-3.0346 0-60.336-48.912-109.25-109.25-109.25z" fill="#fff" opacity=".4"/>
    </g>
   </g>
   <g transform="matrix(.21684 0 0 .21684 -16.578 -28.966)">
    <path d="m112.66 20.383v157.5c-9.7018-3.8264-22.379-4.4356-35.462-0.8711-24.451 6.6617-40.871 25.307-36.563 41.654s27.602 24.242 52.053 17.58c20.774-5.6597 30.782-20.003 32.16-34.21h0.1573v-144.65c13.501 9.6983 48.18 50.254 21.774 95.765 13.348-23.574 15.132-52.927 11.573-67.348s-15.583-29.248-28.012-42.637c-13.057-14.065-17.68-22.779-17.68-22.779z" fill="none" opacity=".05" stroke="#000" stroke-linejoin="round" stroke-width="18.802"/>
    <path d="m112.66 20.383v157.5c-9.7018-3.8264-22.379-4.4356-35.462-0.8711-24.451 6.6617-40.871 25.307-36.563 41.654s27.602 24.242 52.053 17.58c20.774-5.6597 30.782-20.003 32.16-34.21h0.1573v-144.65c13.501 9.6983 48.18 50.254 21.774 95.765 13.348-23.574 15.132-52.927 11.573-67.348s-15.583-29.248-28.012-42.637c-13.057-14.065-17.68-22.779-17.68-22.779z" fill="none" opacity=".1" stroke="#000" stroke-linejoin="round" stroke-width="12.535"/>
    <path d="m112.66 20.383v157.5c-9.7018-3.8264-22.379-4.4356-35.462-0.8711-24.451 6.6617-40.871 25.307-36.563 41.654s27.602 24.242 52.053 17.58c20.774-5.6597 30.782-20.003 32.16-34.21h0.1573v-144.65c13.501 9.6983 48.18 50.254 21.774 95.765 13.348-23.574 15.132-52.927 11.573-67.348s-15.583-29.248-28.012-42.637c-13.057-14.065-17.68-22.779-17.68-22.779z" fill="none" opacity=".15" stroke="#000" stroke-linejoin="round" stroke-width="6.2675"/>
    <path d="m112.66 20.383v157.5c-9.7018-3.8264-22.379-4.4356-35.462-0.8711-24.451 6.6617-40.871 25.307-36.563 41.654s27.602 24.242 52.053 17.58c20.774-5.6597 30.782-20.003 32.16-34.21h0.1573v-144.65c13.501 9.6983 48.18 50.254 21.774 95.765 13.348-23.574 15.132-52.927 11.573-67.348s-15.583-29.248-28.012-42.637c-13.057-14.065-17.68-22.779-17.68-22.779z" fill="#f0f"/>
    <path d="m112.67 20.39v4.3646s4.5993 8.7124 17.656 22.778c12.429 13.389 24.472 28.201 28.031 42.623 0.8797 3.5646 1.4296 8.0516 1.5625 13.128 0.1366-6.874-0.4393-12.941-1.5625-17.492-3.5592-14.422-15.602-29.234-28.031-42.623-13.057-14.065-17.656-22.778-17.656-22.778zm43.719 100.59c-0.2129 6.2836-1.3468 12.793-3.7188 19.504 1.3074-3.4232 2.4463-6.8795 3.375-10.332 0.3448-3.1248 0.4458-6.1702 0.3438-9.1724zm-4.1875 20.766c-1.5447 3.8866-3.3519 7.7053-5.4375 11.389 2.2291-3.8419 4.0295-7.633 5.4375-11.389zm-58.281 32.905c-5.3533 0.0418-10.995 0.7933-16.719 2.3528-22.856 6.227-38.674 22.925-37.125 38.429 1.468-14.16 16.412-28.421 37.125-34.064 13.083-3.5645 25.767-2.9399 35.469 0.8865v-4.3646c-5.4572-2.1524-11.867-3.2931-18.75-3.2393z" fill="#fff" opacity=".7"/>
    <path d="m125.02 53.011v4.3646c9.7039 6.9707 30.335 29.891 31.375 59.126 1.0104-31.302-21.194-56.177-31.375-63.491zm34.906 46.067c-0.1745 8.1003-1.3654 17.325-3.875 26.665-0.5248 4.803-1.5971 9.7338-3.375 14.764 5.5023-14.4 7.5378-29.546 7.25-41.429zm-8.9063 45.589c-0.9211 2.1166-1.9464 4.1859-3.0313 6.24 1.129-2.0948 2.1492-4.1706 3.0313-6.24zm-26.156 52.988c-1.3779 14.207-11.414 28.575-32.188 34.234-24.451 6.6617-47.723-1.2475-52.031-17.595-0.2838-1.0768-0.455-2.1467-0.5625-3.2393-0.2649 2.5555-0.0961 5.1048 0.5625 7.6039 4.3079 16.347 27.58 24.256 52.031 17.595 20.774-5.6597 30.81-20.027 32.188-34.234h0.1563v-4.3646h-0.1563z" fill="#000" opacity=".7"/>
    <path d="m211.21 35.775-27.611 107.89c-5.883-4.6747-14.34-7.7752-23.803-8.1025-17.685-0.6118-32.046 8.6858-32.001 20.796s14.396 22.449 32.081 23.06c15.025 0.5198 24.3-7.1876 27.722-16.629l0.1062 0.0333 25.358-99.093c7.4202 9.5013 23.737 44.624-2.0794 70.212 13.149-13.324 19.5-33.054 19.624-43.687s-5.3994-23.335-11.448-35.137c-6.3546-12.399-7.9496-19.347-7.9496-19.347z" fill="none" opacity=".05" stroke="#000" stroke-linejoin="round" stroke-width="13.294"/>
    <path d="m211.21 35.775-27.611 107.89c-5.883-4.6747-14.34-7.7752-23.803-8.1025-17.685-0.6118-32.046 8.6858-32.001 20.796s14.396 22.449 32.081 23.06c15.025 0.5198 24.3-7.1876 27.722-16.629l0.1062 0.0333 25.358-99.093c7.4202 9.5013 23.737 44.624-2.0794 70.212 13.149-13.324 19.5-33.054 19.624-43.687s-5.3994-23.335-11.448-35.137c-6.3546-12.399-7.9496-19.347-7.9496-19.347z" fill="none" opacity=".1" stroke="#000" stroke-linejoin="round" stroke-width="8.8623"/>
    <path d="m211.21 35.775-27.611 107.89c-5.883-4.6747-14.34-7.7752-23.803-8.1025-17.685-0.6118-32.046 8.6858-32.001 20.796s14.396 22.449 32.081 23.06c15.025 0.5198 24.3-7.1876 27.722-16.629l0.1062 0.0333 25.358-99.093c7.4202 9.5013 23.737 44.624-2.0794 70.212 13.149-13.324 19.5-33.054 19.624-43.687s-5.3994-23.335-11.448-35.137c-6.3546-12.399-7.9496-19.347-7.9496-19.347z" fill="none" opacity=".15" stroke="#000" stroke-linejoin="round" stroke-width="4.4312"/>
    <path d="m211.21 35.775-27.611 107.89c-5.883-4.6747-14.34-7.7752-23.803-8.1025-17.685-0.6118-32.046 8.6858-32.001 20.796s14.396 22.449 32.081 23.06c15.025 0.5198 24.3-7.1876 27.722-16.629l0.1062 0.0333 25.358-99.093c7.4202 9.5013 23.737 44.624-2.0794 70.212 13.149-13.324 19.5-33.054 19.624-43.687s-5.3994-23.335-11.448-35.137c-6.3546-12.399-7.9496-19.347-7.9496-19.347z" fill="#0197fd"/>
    <path d="m211.22 35.783-0.7651 2.9899s1.5796 6.9418 7.9342 19.341c6.049 11.803 11.588 24.498 11.464 35.131-0.0306 2.6281-0.4458 5.8183-1.2459 9.3238 1.2973-4.6801 1.9719-8.9583 2.011-12.314 0.1239-10.633-5.4148-23.329-11.464-35.131-6.3546-12.399-7.9342-19.341-7.9342-19.341zm11.899 78.161c-1.2454 4.2595-3.1525 8.4785-5.9313 12.574 1.4833-2.0683 2.8585-4.195 4.0911-6.3633 0.7807-2.0676 1.3828-4.1325 1.8402-6.2107zm-6.4691 13.339c-1.7248 2.3355-3.6151 4.569-5.6697 6.6509 2.1793-2.1601 4.0602-4.3761 5.6697-6.6509zm-45.139 10.205c-3.6236-1.1044-7.5663-1.7837-11.706-1.9269-16.531-0.5718-30.144 7.5188-31.816 18.467 3.4741-9.3898 16.069-15.996 31.05-15.478 9.4629 0.3273 17.922 3.4398 23.805 8.1145l0.7651-2.9899c-3.3092-2.6295-7.4393-4.7677-12.098-6.1876z" fill="#fff" opacity=".7"/>
    <path d="m213.84 60.742-0.7651 2.9899c5.3333 6.8291 15.252 26.897 10.829 47.145 6.1699-21.229-4.4686-42.969-10.064-50.134zm15.504 38.946c-1.5379 5.5121-3.9595 11.579-7.2922 17.446-1.1965 3.1792-2.7852 6.33-4.8682 9.3999 6.2413-8.7 10.271-18.644 12.16-26.846zm-14.008 29.345c-0.9933 1.255-2.0486 2.4555-3.1416 3.633 1.1299-1.1961 2.183-2.4021 3.1416-3.633zm-26.958 30.763c-3.4214 9.441-12.72 17.159-27.745 16.639-17.685-0.6118-32.02-10.956-32.064-23.066-3e-3 -0.7977 0.069-1.5668 0.1879-2.3381-0.627 1.6946-0.9598 3.4766-0.953 5.328 0.0443 12.11 14.379 22.454 32.064 23.066 15.025 0.5198 24.324-7.1983 27.745-16.639l0.1056 0.0331 0.7651-2.9899-0.1056-0.0331z" fill="#000" opacity=".7"/>
    <path d="m74.886 37.52-18.499 77.879c-3.9416-3.3743-9.6077-5.6122-15.948-5.8485-11.849-0.4416-21.471 6.2695-21.441 15.011s9.6452 16.204 21.494 16.645c10.067 0.3752 16.281-5.1881 18.574-12.003l0.0712 0.024 16.99-71.526c4.9715 6.8582 15.904 32.21-1.3932 50.68 8.8101-9.6175 13.065-23.859 13.148-31.534s-3.6176-16.843-7.6704-25.363c-4.2576-8.9496-5.3263-13.965-5.3263-13.965z" fill="none" opacity=".05" stroke="#000" stroke-linejoin="round" stroke-width="9.2447"/>
    <path d="m74.886 37.52-18.499 77.879c-3.9416-3.3743-9.6077-5.6122-15.948-5.8485-11.849-0.4416-21.471 6.2695-21.441 15.011s9.6452 16.204 21.494 16.645c10.067 0.3752 16.281-5.1881 18.574-12.003l0.0712 0.024 16.99-71.526c4.9715 6.8582 15.904 32.21-1.3932 50.68 8.8101-9.6175 13.065-23.859 13.148-31.534s-3.6176-16.843-7.6704-25.363c-4.2576-8.9496-5.3263-13.965-5.3263-13.965z" fill="none" opacity=".1" stroke="#000" stroke-linejoin="round" stroke-width="6.1631"/>
    <path d="m74.886 37.52-18.499 77.879c-3.9416-3.3743-9.6077-5.6122-15.948-5.8485-11.849-0.4416-21.471 6.2695-21.441 15.011s9.6452 16.204 21.494 16.645c10.067 0.3752 16.281-5.1881 18.574-12.003l0.0712 0.024 16.99-71.526c4.9715 6.8582 15.904 32.21-1.3932 50.68 8.8101-9.6175 13.065-23.859 13.148-31.534s-3.6176-16.843-7.6704-25.363c-4.2576-8.9496-5.3263-13.965-5.3263-13.965z" fill="none" opacity=".15" stroke="#000" stroke-linejoin="round" stroke-width="3.0816"/>
    <path d="m74.886 37.52-18.499 77.879c-3.9416-3.3743-9.6077-5.6122-15.948-5.8485-11.849-0.4416-21.471 6.2695-21.441 15.011s9.6452 16.204 21.494 16.645c10.067 0.3752 16.281-5.1881 18.574-12.003l0.0712 0.024 16.99-71.526c4.9715 6.8582 15.904 32.21-1.3932 50.68 8.8101-9.6175 13.065-23.859 13.148-31.534s-3.6176-16.843-7.6704-25.363c-4.2576-8.9496-5.3263-13.965-5.3263-13.965z" fill="#f0a513"/>
    <path d="m74.892 37.526-0.5126 2.1582s1.0584 5.0107 5.3159 13.96c4.0529 8.5193 7.7638 17.683 7.6808 25.358-0.0205 1.897-0.2987 4.1997-0.8347 6.73 0.8692-3.3781 1.3212-6.4662 1.3474-8.8882 0.083-7.6749-3.6279-16.839-7.6808-25.358-4.2576-8.9496-5.3159-13.96-5.3159-13.96zm7.9725 56.418c-0.8344 3.0745-2.1121 6.1199-3.974 9.0761 0.9938-1.4929 1.9152-3.028 2.7411-4.5931 0.5231-1.4924 0.9265-2.9829 1.2329-4.483zm-4.3343 9.6283c-1.1556 1.6858-2.4221 3.298-3.7987 4.8007 1.4602-1.5592 2.7203-3.1587 3.7987-4.8007zm-30.243 7.3664c-2.4278-0.7972-5.0695-1.2875-7.8433-1.3909-11.076-0.4128-20.196 5.4272-21.316 13.33 2.3276-6.7777 10.766-11.546 20.804-11.172 6.3402 0.2363 12.008 2.4829 15.949 5.8572l0.5126-2.1582c-2.2172-1.898-4.9843-3.4414-8.1058-4.4663z" fill="#fff" opacity=".7"/>
    <path d="m76.648 55.542-0.5126 2.1582c3.5733 4.9293 10.219 19.415 7.2557 34.03 4.1339-15.324-2.994-31.016-6.7431-36.188zm10.388 28.112c-1.0304 3.9787-2.6529 8.3581-4.8858 12.593-0.8016 2.2948-1.8661 4.5691-3.2617 6.785 4.1817-6.2798 6.8819-13.458 8.1475-19.378zm-9.3857 21.182c-0.6655 0.9059-1.3726 1.7725-2.1049 2.6224 0.757-0.8633 1.4626-1.7339 2.1049-2.6224zm-18.062 22.205c-2.2924 6.8147-8.5222 12.386-18.589 12.01-11.849-0.4416-21.453-7.9079-21.483-16.649-2e-3 -0.5758 0.0462-1.131 0.1259-1.6877-0.4201 1.2232-0.6431 2.5095-0.6385 3.8459 0.0297 8.7413 9.6338 16.208 21.483 16.649 10.067 0.3752 16.297-5.1958 18.589-12.01l0.0707 0.0239 0.5126-2.1582-0.0707-0.0239z" fill="#000" opacity=".7"/>
   </g>
  </g>
 </g>
</svg>
